<?xml version="1.0" encoding="UTF-8"?>
<svg id="Layer_2" xmlns="http://www.w3.org/2000/svg" xmlns:xlink="http://www.w3.org/1999/xlink" version="1.1" viewBox="0 0 437.6 232.3">
  <!-- Generator: Adobe Illustrator 29.1.0, SVG Export Plug-In . SVG Version: 2.1.0 Build 142)  -->
  <defs>
    <style>
      .st0 {
        fill: url(#linear-gradient2);
      }

      .st1 {
        fill: url(#linear-gradient1);
      }

      .st2 {
        fill: url(#linear-gradient3);
      }

      .st3 {
        fill: url(#linear-gradient5);
      }

      .st4 {
        fill: url(#linear-gradient4);
      }

      .st5 {
        fill: url(#linear-gradient);
      }

      .st6 {
        fill: #1e2443;
      }
    </style>
    <linearGradient id="linear-gradient" x1="245.9" y1="42.4" x2="270" y2="42.4" gradientUnits="userSpaceOnUse">
      <stop offset="0" stop-color="#46989a"/>
      <stop offset="0" stop-color="#3d7f9c" stop-opacity=".9"/>
      <stop offset=".2" stop-color="#33659e" stop-opacity=".8"/>
      <stop offset=".3" stop-color="#2c51a0" stop-opacity=".8"/>
      <stop offset=".4" stop-color="#2846a1" stop-opacity=".7"/>
      <stop offset=".5" stop-color="#2742a2" stop-opacity=".7"/>
      <stop offset=".6" stop-color="#1e3276" stop-opacity=".8"/>
      <stop offset=".7" stop-color="#172450" stop-opacity=".9"/>
      <stop offset=".9" stop-color="#121c39" stop-opacity="1"/>
      <stop offset="1" stop-color="#111a32"/>
    </linearGradient>
    <linearGradient id="linear-gradient1" x1="193.3" y1="161.5" x2="193.3" y2="75.1" xlink:href="#linear-gradient"/>
    <linearGradient id="linear-gradient2" x1="293.3" y1="157.1" x2="194.8" y2="157.1" gradientUnits="userSpaceOnUse">
      <stop offset="0" stop-color="#46989a"/>
      <stop offset="0" stop-color="#3d7f9c" stop-opacity=".9"/>
      <stop offset=".2" stop-color="#33659e" stop-opacity=".8"/>
      <stop offset=".3" stop-color="#2c51a0" stop-opacity=".8"/>
      <stop offset=".4" stop-color="#2846a1" stop-opacity=".7"/>
      <stop offset=".5" stop-color="#2742a2" stop-opacity=".7"/>
      <stop offset=".6" stop-color="#1e3276" stop-opacity=".8"/>
      <stop offset=".7" stop-color="#172450" stop-opacity=".9"/>
      <stop offset=".9" stop-color="#121c39" stop-opacity="1"/>
      <stop offset="1" stop-color="#111a32"/>
    </linearGradient>
    <linearGradient id="linear-gradient3" y1="81" x2="194.8" y2="81" xlink:href="#linear-gradient2"/>
    <linearGradient id="linear-gradient4" x1="277.3" y1="112.1" x2="263.4" y2="88.1" xlink:href="#linear-gradient2"/>
    <linearGradient id="linear-gradient5" x1="230.3" y1="83.7" x2="144.4" y2="83.7" xlink:href="#linear-gradient2"/>
  </defs>
  <g>
    <g>
      <path class="st6" d="M44.7,195c-.3-1-.7-1.9-1.3-2.7-.6-.9-1.2-1.6-2-2.2-.8-.6-1.6-1.1-2.6-1.5-1-.4-2-.5-3.1-.5s-2.8.3-4,.9-2.2,1.5-3,2.5c-.8,1-1.4,2.2-1.8,3.5s-.6,2.7-.6,4,.2,2.8.7,4.1c.4,1.3,1.1,2.4,1.9,3.3.8.9,1.8,1.7,3,2.2,1.2.5,2.5.8,3.9.8s2.2-.2,3.2-.6c1-.4,1.9-.9,2.6-1.5.8-.6,1.4-1.4,2-2.2.5-.8.9-1.7,1.1-2.5h.4v6.7h-.5c-.3-.3-.5-.7-.8-.9-.3-.3-.5-.4-.6-.4s-.2.1-.6.3c-.3.2-.9.4-1.5.7s-1.5.5-2.4.7c-.9.2-2,.3-3.2.3-2,0-3.9-.3-5.5-.8s-3-1.3-4.2-2.3c-1.1-1-2-2.2-2.6-3.5-.6-1.4-.9-2.9-.9-4.5s0-.8,0-1.3c0-.5.2-1,.3-1.5.1-.5.3-1.1.6-1.7.3-.6.6-1.2,1-1.8.5-.7,1-1.4,1.7-2,.7-.6,1.5-1.2,2.4-1.7.9-.5,2-.9,3.1-1.1,1.2-.3,2.5-.4,3.9-.4s2.5.1,3.4.3,1.8.5,2.5.7,1.2.5,1.5.7c.3.2.5.3.6.3s.1,0,.2-.1c.1,0,.3-.2.4-.3.1-.1.3-.3.4-.5.2-.2.3-.4.4-.5h.4v6.8h-.4Z"/>
      <path class="st6" d="M72.1,209.8h-21v-.3c.5,0,1.1-.2,1.6-.4.5-.2,1-.4,1.3-.8.1-.1.2-.3.3-.5,0-.2.1-.5.2-.8,0-.3,0-.6.1-1s0-.7,0-1,0-.7,0-1.2c0-.5,0-1,0-1.6,0-.6,0-1.2,0-1.8v-8.8c0-.4,0-.7,0-1s0-.6-.1-.8-.2-.4-.3-.6c-.3-.3-.7-.6-1.2-.8-.5-.2-1.1-.3-1.6-.4v-.3h10.4v.3c-.3,0-.6.1-1,.2s-.8.2-1.1.4c-.3.2-.6.4-.9.8-.3.3-.4.8-.4,1.3,0,.7,0,1.4,0,2,0,.6,0,1.2,0,1.7,0,.6,0,1.2,0,1.8v5.6c0,.5,0,1.1,0,1.6,0,.6,0,1.2,0,1.9,0,.7,0,1.3,0,1.9s.1,1,.3,1.3c0,.1.3.2.5.3.3.1.6.2.9.3.4,0,.8.1,1.2.2.4,0,.9,0,1.3,0s.5,0,.8,0c.4,0,.8,0,1.3,0,.5,0,.9,0,1.4-.1.5,0,.9-.1,1.3-.2.9-.2,1.6-.5,2.2-.9.6-.4,1.1-.8,1.5-1.3.4-.5.8-1,1-1.6.3-.6.6-1.1.8-1.8h.3c0,0-1.2,6.4-1.2,6.4Z"/>
      <path class="st6" d="M97.8,209.8h-20v-.3c.5,0,1.1-.2,1.5-.4.5-.2.9-.4,1.2-.8.1-.1.2-.3.3-.5,0-.2.1-.5.2-.8,0-.3,0-.6.1-1,0-.3,0-.7,0-1s0-.7,0-1.2c0-.5,0-1,0-1.6,0-.6,0-1.2,0-1.8v-7.7c0-.4,0-.7,0-1.1,0-.4,0-.8,0-1.1s0-.7-.2-.9c0-.3-.2-.5-.3-.6-.3-.3-.7-.5-1-.6-.4,0-.9-.2-1.4-.3v-.3h18.1l2.2,5-.3.2c-1.8-2.1-3.4-3.4-5-4.2-.4-.2-1.1-.3-2.1-.4-1-.1-2.2-.2-3.7-.2s-.9,0-1.4,0-.8,0-1.1.1c0,.3,0,1-.1,2s0,2.2,0,3.5v2c0,.5,0,1,0,1.3,0,.3,0,.6,0,.8v.3h.7c.3,0,.7,0,1.1,0,.4,0,.9,0,1.3,0s.8,0,1.1-.1c.7-.1,1.2-.3,1.6-.6.4-.2.8-.5,1.1-.9.3-.3.5-.7.7-1.2.2-.5.3-1,.4-1.5h.4v9.6h-.4c-.2-.7-.4-1.3-.8-2s-.7-1.2-1.1-1.6c-.3-.3-.8-.5-1.3-.7-.5-.2-1.1-.3-1.7-.3s-.6,0-.8,0c-.2,0-.4,0-.7,0h-1.5c0,.3,0,.7,0,1.3v3.7c0,.3,0,.6,0,.9,0,.3,0,.5,0,.7,0,.7,0,1.3.1,1.8,0,.6.2,1,.4,1.3s.7.5,1.4.6c.7.1,1.5.2,2.4.2s.8,0,1.4,0c.6,0,1.2,0,1.8-.2.7,0,1.3-.2,1.9-.5.6-.2,1.2-.6,1.7-1,.5-.4,1.1-1,1.6-1.6.5-.6,1-1.4,1.6-2.2h.4c0,0-1.6,5.9-1.6,5.9Z"/>
      <path class="st6" d="M117.4,209.8v-.3c0,0,.2,0,.5,0,.3,0,.5-.1.8-.2.3-.1.5-.2.7-.4.2-.2.3-.4.3-.7s0-.5-.2-.9c-.1-.4-.3-.9-.5-1.5-.2-.6-.5-1.3-.8-2-.3-.7-.6-1.5-.9-2.3h-8.7c-.3.8-.6,1.5-.9,2.2-.3.7-.6,1.4-.9,2.1-.5,1.1-.7,1.9-.7,2.3s0,.5.3.7c.2.2.4.3.7.4.3.1.6.2.9.2.3,0,.6,0,.9.1v.3h-7v-.3c.6,0,1.1-.2,1.5-.4.4-.2.6-.4.7-.5.2-.1.4-.5.8-1,.3-.5.8-1.3,1.3-2.3.5-1,1-2,1.5-3.3.6-1.2,1.1-2.5,1.8-3.8.6-1.3,1.2-2.6,1.8-3.9.6-1.3,1.1-2.5,1.7-3.7l-.3-.7c.4-.2.7-.4,1.1-.6.3-.2.6-.5.8-.7.2-.2.4-.5.6-.7s.3-.4.4-.5h.3c.7,1.7,1.3,3.3,1.9,4.8.6,1.5,1.2,3,1.8,4.4.6,1.4,1.1,2.8,1.6,4.1.5,1.3,1,2.6,1.6,3.9.2.6.5,1.2.7,1.6.2.4.4.9.7,1.4,0,0,.1.2.3.4.2.2.4.4.6.6.3.2.6.4.9.6.4.2.8.3,1.3.3v.4h-9.6ZM113.2,191.4c-.1.3-.3.7-.6,1.3-.3.6-.6,1.3-.9,2.1-.4.8-.8,1.7-1.2,2.8-.4,1-.9,2.1-1.5,3.3h8.1c-.4-.9-.7-1.8-1.1-2.7-.4-.9-.8-1.8-1.1-2.6-.4-.8-.7-1.6-1-2.3-.3-.7-.5-1.3-.7-1.7Z"/>
      <path class="st6" d="M155,188.8c-.5.3-.9.7-1.1,1.3-.2.3-.3.9-.3,1.7,0,.8,0,1.7-.1,2.6,0,.9,0,1.9-.1,3.1s0,2.5,0,3.8v2c0,.7,0,1.4,0,2.2,0,.7,0,1.5,0,2.2v2c0,0,0,.1,0,.2,0,0-.1,0-.2,0-.2,0-.4-.1-.6-.3-1.9-2-3.5-3.8-5.1-5.5-1.5-1.7-3-3.3-4.4-4.8-1.4-1.5-2.7-3-4.1-4.4-1.3-1.4-2.7-2.9-4.2-4.5v12.9c0,1,0,2,0,2.8,0,.8.2,1.5.4,1.9.2.5.6.8,1.1,1.1.5.2,1.2.4,2.1.5v.3h-8v-.3c.5,0,1-.2,1.6-.4s.9-.5,1.2-1c.3-.4.5-1.1.6-1.9,0-.8.2-1.8.2-3,0-.9,0-1.9,0-3.1,0-1.2,0-2.5,0-3.8v-3.7c0-.4,0-.9,0-1.5,0-.6-.2-1.1-.5-1.4-.2-.4-.5-.7-.9-.9s-.7-.4-1.1-.5c-.4,0-.7-.2-1.1-.2v-.3h6.6l15.5,16.9v-10.4c0-.8,0-1.6,0-2.3,0-.7-.1-1.3-.3-1.8-.2-.6-.6-1-1.2-1.4s-1.4-.6-2.4-.7v-.3h8.1v.3c-.8.1-1.5.3-1.9.6Z"/>
      <path class="st6" d="M186.8,188.8c-.5.3-.9.7-1.1,1.3-.2.3-.3.9-.3,1.7,0,.8,0,1.7-.1,2.6,0,.9,0,1.9-.1,3.1s0,2.5,0,3.8v2c0,.7,0,1.4,0,2.2,0,.7,0,1.5,0,2.2v2c0,0,0,.1,0,.2,0,0-.1,0-.2,0-.2,0-.4-.1-.6-.3-1.9-2-3.5-3.8-5.1-5.5-1.5-1.7-3-3.3-4.4-4.8-1.4-1.5-2.7-3-4.1-4.4-1.3-1.4-2.7-2.9-4.2-4.5v12.9c0,1,0,2,0,2.8,0,.8.2,1.5.4,1.9.2.5.6.8,1.1,1.1.5.2,1.2.4,2.1.5v.3h-8v-.3c.5,0,1-.2,1.6-.4s.9-.5,1.2-1c.3-.4.5-1.1.6-1.9,0-.8.2-1.8.2-3,0-.9,0-1.9,0-3.1,0-1.2,0-2.5,0-3.8v-3.7c0-.4,0-.9,0-1.5,0-.6-.2-1.1-.5-1.4-.2-.4-.5-.7-.9-.9s-.7-.4-1.1-.5c-.4,0-.7-.2-1.1-.2v-.3h6.6l15.5,16.9v-10.4c0-.8,0-1.6,0-2.3,0-.7-.1-1.3-.3-1.8-.2-.6-.6-1-1.2-1.4s-1.4-.6-2.4-.7v-.3h8.1v.3c-.8.1-1.5.3-1.9.6Z"/>
      <path class="st6" d="M214.4,209.8h-20v-.3c.5,0,1.1-.2,1.5-.4.5-.2.9-.4,1.2-.8.1-.1.2-.3.3-.5,0-.2.1-.5.2-.8,0-.3,0-.6.1-1,0-.3,0-.7,0-1s0-.7,0-1.2c0-.5,0-1,0-1.6,0-.6,0-1.2,0-1.8v-7.7c0-.4,0-.7,0-1.1,0-.4,0-.8,0-1.1s0-.7-.2-.9c0-.3-.2-.5-.3-.6-.3-.3-.7-.5-1-.6-.4,0-.9-.2-1.4-.3v-.3h18.1l2.2,5-.3.2c-1.8-2.1-3.4-3.4-5-4.2-.4-.2-1.1-.3-2.1-.4-1-.1-2.2-.2-3.7-.2s-.9,0-1.4,0-.8,0-1.1.1c0,.3,0,1-.1,2s0,2.2,0,3.5v2c0,.5,0,1,0,1.3,0,.3,0,.6,0,.8v.3h.7c.3,0,.7,0,1.1,0,.4,0,.9,0,1.3,0s.8,0,1.1-.1c.7-.1,1.2-.3,1.6-.6.4-.2.8-.5,1.1-.9.3-.3.5-.7.7-1.2.2-.5.3-1,.4-1.5h.4v9.6h-.4c-.2-.7-.4-1.3-.8-2s-.7-1.2-1.1-1.6c-.3-.3-.8-.5-1.3-.7-.5-.2-1.1-.3-1.7-.3s-.6,0-.8,0c-.2,0-.4,0-.7,0h-1.5c0,.3,0,.7,0,1.3v3.7c0,.3,0,.6,0,.9,0,.3,0,.5,0,.7,0,.7,0,1.3.1,1.8,0,.6.2,1,.4,1.3s.7.5,1.4.6c.7.1,1.5.2,2.4.2s.8,0,1.4,0c.6,0,1.2,0,1.8-.2.7,0,1.3-.2,1.9-.5.6-.2,1.2-.6,1.7-1,.5-.4,1.1-1,1.6-1.6.5-.6,1-1.4,1.6-2.2h.4c0,0-1.6,5.9-1.6,5.9Z"/>
      <path class="st6" d="M237.2,206.5c-.4.8-1,1.4-1.8,2-.8.5-1.7,1-2.7,1.2-1,.3-2.2.4-3.4.4s-2,0-2.7-.2-1.4-.3-1.9-.4c-.5-.2-.9-.3-1.1-.5-.3-.1-.4-.2-.5-.2s-.2.1-.4.4c-.2.2-.4.5-.6.7h-.3v-6.1c0,0,.2,0,.2,0,.2.5.4,1.1.8,1.6.3.5.6,1,1,1.5s.7.9,1.1,1.2c.4.3.8.6,1.2.8.4.2.9.4,1.5.5.6.2,1.2.3,1.8.3,1.6,0,2.9-.4,3.9-1.2,1-.8,1.5-1.9,1.5-3.3s0-1.1-.3-1.5c-.2-.4-.5-.8-.8-1.1-.3-.3-.7-.6-1.2-.8-.5-.2-.9-.4-1.5-.6-.5-.2-1-.3-1.4-.5s-.8-.2-1.1-.4c-.3-.1-.7-.2-1-.3-.4-.1-.8-.3-1.3-.4-.6-.2-1.1-.5-1.6-.8-.5-.4-1-.8-1.4-1.3s-.7-1-.9-1.6c-.2-.6-.4-1.2-.4-1.8,0-1.1.2-2,.6-2.8.4-.8,1-1.5,1.7-2s1.6-.9,2.5-1.2c.9-.3,1.9-.4,3-.4s1.8,0,2.5.2c.7.2,1.3.3,1.7.5s.8.4,1,.5c.2.2.4.2.4.2,0,0,.2-.1.4-.4s.4-.5.6-.7h.4v5.6h-.4c-.3-.7-.6-1.3-1-2s-.9-1.3-1.4-1.8c-.5-.5-1.2-.9-1.9-1.3-.7-.3-1.5-.5-2.3-.5s-1.3,0-1.9.3c-.6.2-1.1.5-1.6.8s-.8.8-1,1.4c-.3.5-.4,1.2-.4,1.8,0,1.1.3,1.9,1,2.6s1.6,1.2,2.7,1.6c.4.2.8.3,1.2.4.4.1.8.2,1.1.4.4.1.7.2,1.1.4s.8.3,1.2.4c1.5.5,2.6,1.2,3.4,2.2s1.2,2.2,1.2,3.6-.2,1.9-.6,2.6Z"/>
      <path class="st6" d="M260.2,206.5c-.4.8-1,1.4-1.8,2-.8.5-1.7,1-2.7,1.2-1,.3-2.2.4-3.4.4s-2,0-2.7-.2-1.4-.3-1.9-.4-.9-.3-1.1-.5c-.3-.1-.4-.2-.5-.2s-.2.1-.4.4-.4.5-.6.7h-.3v-6.1c0,0,.2,0,.2,0,.2.5.4,1.1.8,1.6.3.5.6,1,1,1.5.4.5.7.9,1.1,1.2.4.3.8.6,1.2.8.4.2.9.4,1.5.5.6.2,1.2.3,1.8.3,1.6,0,2.9-.4,3.9-1.2,1-.8,1.5-1.9,1.5-3.3s0-1.1-.3-1.5c-.2-.4-.5-.8-.8-1.1-.3-.3-.7-.6-1.2-.8s-.9-.4-1.5-.6c-.5-.2-1-.3-1.4-.5s-.8-.2-1.1-.4c-.3-.1-.7-.2-1-.3-.4-.1-.8-.3-1.3-.4-.6-.2-1.1-.5-1.6-.8-.5-.4-1-.8-1.4-1.3s-.7-1-.9-1.6-.4-1.2-.4-1.8c0-1.1.2-2,.6-2.8.4-.8,1-1.5,1.7-2s1.6-.9,2.5-1.2c.9-.3,1.9-.4,3-.4s1.8,0,2.5.2c.7.2,1.3.3,1.7.5.4.2.8.4,1,.5.2.2.4.2.4.2,0,0,.2-.1.4-.4.2-.2.4-.5.6-.7h.4v5.6h-.4c-.3-.7-.6-1.3-1-2-.4-.7-.9-1.3-1.4-1.8-.5-.5-1.2-.9-1.9-1.3s-1.5-.5-2.3-.5-1.3,0-1.9.3c-.6.2-1.1.5-1.6.8s-.8.8-1,1.4c-.3.5-.4,1.2-.4,1.8,0,1.1.3,1.9,1,2.6s1.6,1.2,2.7,1.6c.4.2.8.3,1.2.4.4.1.8.2,1.1.4.4.1.7.2,1.1.4s.8.3,1.2.4c1.5.5,2.6,1.2,3.4,2.2.8,1,1.2,2.2,1.2,3.6s-.2,1.9-.6,2.6Z"/>
      <path class="st6" d="M300.5,199.9c-.4.1-.8.3-.9.6-.2.2-.2.6-.3,1s0,.9,0,1.4v4.5c-.2.1-.5.3-1.1.6-.6.3-1.3.6-2.2.9-.9.3-1.8.5-2.9.7s-2.1.3-3.1.3c-2.1,0-3.9-.2-5.6-.7s-3-1.2-4.1-2.2c-1.1-1-2-2.1-2.6-3.5-.6-1.4-.9-3-.9-4.7s0-1.1.2-1.8c.1-.7.3-1.4.6-2.1.3-.7.7-1.5,1.1-2.2.5-.8,1.1-1.5,1.8-2.1,1-1,2.3-1.7,3.9-2.3,1.5-.6,3.4-.9,5.6-.9s2.5.1,3.5.3c1,.2,1.8.4,2.5.7.7.3,1.2.5,1.6.7.4.2.6.3.6.3s.2-.1.4-.4.4-.5.7-.9h.3v6.7h-.4c-.2-.9-.6-1.8-1.1-2.6-.5-.8-1-1.5-1.5-2-.7-.7-1.6-1.3-2.7-1.7-1.1-.4-2.3-.6-3.7-.6s-2.7.3-3.9.9c-1.2.6-2.1,1.4-2.9,2.4-.8,1-1.4,2.2-1.9,3.5-.4,1.3-.7,2.7-.7,4.1s.2,3,.6,4.3c.4,1.3,1,2.4,1.8,3.4s1.7,1.7,2.9,2.2,2.4.8,3.9.8,2-.2,2.9-.5c.9-.3,1.6-.9,2.1-1.6.2-.3.3-.7.4-1.4,0-.7.1-1.4.1-2.1s0-1.4-.1-1.9c0-.6-.3-1-.7-1.4-.5-.5-1.4-.8-2.6-.9v-.3h9.6v.3c-.4,0-.8.1-1.2.3Z"/>
      <path class="st6" d="M325.4,209.8c-.2-.2-.3-.3-.4-.4s-.2-.2-.3-.3c-.1-.1-.2-.3-.4-.5-.2-.2-.4-.6-.8-1.1-.4-.6-.8-1.1-1.1-1.5-.3-.5-.6-.9-1-1.4s-.7-.9-1.1-1.4c-.4-.5-.8-1-1.4-1.5-.4-.5-.9-.9-1.4-1.3s-1.1-.7-1.6-.8c-.4,0-.7-.1-.9-.1s-.4,0-.8,0v3.4c0,1,0,1.8,0,2.5,0,.7,0,1.2,0,1.7s.1.9.4,1.2c.2.3.5.5,1,.8s1.2.4,2.1.5v.3h-10.5v-.3c.5,0,1.1-.2,1.6-.4s.9-.4,1.2-.7c.1-.1.2-.3.3-.5s.1-.5.1-.8c0-.3,0-.6,0-1,0-.3,0-.7,0-1s0-.7,0-1.2,0-1,0-1.6c0-.6,0-1.2,0-1.8v-7.7c0-.4,0-.7,0-1.1,0-.4,0-.7,0-1.1,0-.3,0-.6-.2-.9s-.2-.5-.3-.6c-.3-.3-.7-.5-1.1-.7-.4-.1-.9-.2-1.5-.3v-.3h1.3c.7,0,1.6,0,2.5,0,.9,0,1.9,0,2.8,0h2.3c1.5,0,2.8,0,3.9.1,1.1,0,2.2.4,3.1.8,1,.5,1.7,1.1,2.3,1.9s.9,1.8.9,3-.1,1.4-.4,2c-.3.6-.7,1.1-1.2,1.6-.5.5-1.1.8-1.7,1.2s-1.3.6-2.1.8h0c.4.3.7.5,1.1.9.3.3.7.7,1,1.2.6.8,1.2,1.6,1.8,2.5.7.9,1.3,1.7,1.8,2.4.8,1.1,1.6,1.8,2.4,2.3s1.7.8,2.7.9v.3h-6.7ZM322.2,190.8c-.5-.8-1.3-1.4-2.4-1.9-.5-.2-1.1-.4-1.7-.5-.6-.1-1.2-.2-1.8-.2s-.8,0-1.1,0c-.3,0-.5,0-.7,0,0,.1,0,.2,0,.3,0,0,0,.2,0,.4,0,.1,0,.3,0,.6,0,.3,0,.6,0,1.1,0,.7,0,1.5,0,2.4,0,.9,0,1.8,0,2.6v3.4c.9,0,1.7,0,2.5-.1.8,0,1.5-.2,2.2-.4.7-.2,1.3-.5,1.8-.8.5-.3.9-.7,1.2-1.2.3-.4.6-.9.7-1.4.2-.5.2-1,.2-1.6,0-1-.3-1.9-.8-2.7Z"/>
      <path class="st6" d="M358.8,203.2c-.7,1.4-1.5,2.6-2.7,3.6-1.1,1-2.4,1.8-3.9,2.3-1.5.5-3.1.8-4.8.8s-3.2-.3-4.7-.8c-1.5-.5-2.8-1.3-3.9-2.3s-2-2.2-2.6-3.5c-.6-1.4-1-2.9-1-4.5s.3-3.3,1-4.7c.7-1.4,1.6-2.6,2.7-3.5,1.1-1,2.5-1.7,4-2.2,1.5-.5,3.2-.8,4.9-.8s3.5.3,5,.9c1.5.6,2.7,1.4,3.7,2.5,1,1,1.8,2.2,2.4,3.6.5,1.3.8,2.7.8,4.2s-.3,3.1-1,4.5ZM355.2,195c-.3-1.3-.9-2.4-1.5-3.4-.7-1-1.5-1.9-2.6-2.5-1-.6-2.2-1-3.6-1s-2.6.3-3.7,1c-1,.6-1.9,1.5-2.6,2.5-.7,1-1.2,2.2-1.5,3.5s-.5,2.6-.5,3.9.2,2.7.5,4,.9,2.4,1.6,3.4c.7,1,1.5,1.8,2.6,2.3,1,.6,2.2.9,3.6.9s2.6-.3,3.6-1c1-.7,1.9-1.5,2.5-2.5s1.2-2.2,1.5-3.5c.3-1.3.5-2.6.5-3.8s-.2-2.5-.5-3.8Z"/>
      <path class="st6" d="M389,188.8c-.5.3-.8.7-1.1,1.3,0,.1-.1.4-.2.7,0,.3-.1.7-.1,1.1,0,.4,0,.9,0,1.4s0,1,0,1.4c0,.9,0,1.9,0,2.9,0,1.1,0,2.3-.1,3.7,0,.4,0,.9,0,1.5,0,.6-.1,1.2-.3,1.9-.2.7-.5,1.3-.8,2-.4.7-.9,1.3-1.6,1.8s-1.6,1-2.7,1.3-2.4.5-4,.5-2.9-.2-4-.5c-1.1-.3-2-.7-2.7-1.2s-1.2-1.1-1.6-1.7c-.4-.6-.7-1.2-.9-1.8s-.3-1.1-.3-1.6c0-.5,0-.9,0-1.1,0-.6,0-1.3,0-2.2,0-.9,0-1.9,0-3.1v-5.2c0-.4,0-.7,0-1,0-.3,0-.6-.1-.9,0-.3-.2-.5-.3-.6-.3-.3-.7-.6-1.1-.7-.4-.2-1-.3-1.5-.3v-.3h9.7v.3c-.3,0-.6.1-1,.2s-.7.2-.9.4c-.3.2-.5.4-.7.7-.2.3-.3.7-.3,1.2,0,.5,0,1,0,1.4,0,.4,0,.8,0,1.2v6.1c0,.5,0,.9,0,1.4,0,.4,0,.9,0,1.4,0,1.1.2,2.1.5,2.9s.8,1.6,1.4,2.3c.6.6,1.3,1.1,2.2,1.4s1.8.5,2.9.5,2.3-.1,3.2-.4c.9-.3,1.6-.6,2.2-1.1s1-1,1.4-1.6c.3-.6.6-1.3.8-2,.2-.7.3-1.4.3-2.1,0-.7,0-1.4,0-2.1v-5.2c0-.4,0-.8,0-1.3,0-.4,0-.8,0-1.2,0-.4,0-.7,0-1.1,0-.3-.1-.6-.2-.8-.2-.6-.6-1-1.1-1.4s-1.3-.6-2.4-.7v-.3h8.1v.3c-.8.1-1.4.3-1.9.6Z"/>
      <path class="st6" d="M414.9,196.3c-.3.6-.6,1.2-1,1.6-.4.5-.9.9-1.5,1.2-.6.3-1.1.6-1.7.8-.6.2-1.3.4-2,.5-.7.1-1.4.2-2.1.2s-1.4,0-2.1,0h-1.8v2.9c0,.3,0,.7,0,1,0,.3,0,.6,0,1,0,.7,0,1.2,0,1.7,0,.5.1.9.4,1.2.2.3.5.5,1,.8s1.2.4,2.1.5v.3h-10.5v-.3c.5,0,1.1-.2,1.6-.4s.9-.4,1.2-.7c.1-.1.2-.3.3-.5s.1-.5.1-.8c0-.3,0-.6,0-1,0-.3,0-.7,0-1s0-.7,0-1.2,0-1,0-1.6c0-.6,0-1.2,0-1.8v-7.7c0-.4,0-.7,0-1.1,0-.4,0-.7,0-1.1,0-.3,0-.6-.2-.9s-.2-.5-.3-.6c-.3-.3-.7-.5-1.3-.7-.5-.1-1.1-.2-1.7-.3v-.3h.8c.4,0,.9,0,1.5,0,.6,0,1.2,0,1.8,0s1.3,0,1.9,0c.6,0,1.2,0,1.8,0h1.5c1.4,0,2.7,0,3.8.2,1.1.1,2.2.5,3.1,1,1,.5,1.8,1.2,2.4,2.1.6.9.9,2,.9,3.2s-.1,1.4-.4,2ZM410.8,190.9c-.6-.9-1.5-1.6-2.5-2.1-.5-.2-1.1-.4-1.7-.5s-1.2-.1-1.8-.1-.8,0-1.1,0-.5,0-.6,0c0,.1,0,.2,0,.3,0,0,0,.2,0,.4,0,.1,0,.3,0,.6,0,.3,0,.6,0,1.1,0,.7,0,1.6,0,2.6,0,1,0,2,0,3v3.9c.9,0,1.7,0,2.5,0,.8,0,1.5-.2,2.2-.4,1.4-.4,2.5-1.2,3.2-2.2.7-1,1.1-2.2,1.1-3.5s-.3-2.2-1-3.1Z"/>
    </g>
    <path class="st5" d="M258,31.7c0,5.9-5.4,10.7-12,10.7,6.6,0,12,4.8,12,10.7,0-5.9,5.4-10.7,12-10.7-6.6,0-12-4.8-12-10.7Z"/>
    <g>
      <path class="st6" d="M239.4,68.6c-.8-2.9-1.9-5.6-3.3-8-1.4-2.4-3-4.6-4.9-6.4-1.9-1.8-4.1-3.2-6.6-4.2-2.5-1-5.3-1.5-8.4-1.5s-7.4.8-10.1,2.3c-2.8,1.5-5,3.6-6.8,6.3-1.8,2.6-3.1,5.7-3.9,9.2-.8,3.5-1.2,7.1-1.2,11s.5,7.5,1.5,11.1c1,3.5,2.6,6.6,4.6,9.2s4.6,4.7,7.6,6.3c3.1,1.6,6.6,2.4,10.6,2.4,6,0,11.2-1.5,15.5-4.5,4.3-3,8.2-7.1,11.5-12.4l2.4,1.9c-2.2,3.3-4.4,6.2-6.6,8.7-2.2,2.5-4.6,4.6-7.1,6.4s-5.4,3.1-8.4,4c-3,.9-6.4,1.4-10.2,1.4s-8.4-.8-12.3-2.5c-3.9-1.6-7.2-3.9-10.1-6.9-2.9-2.9-5.2-6.4-6.9-10.5-1.7-4.1-2.6-8.6-2.6-13.5s.9-9.4,2.6-13.5c1.7-4.1,4-7.6,6.9-10.5,2.9-2.9,6.3-5.2,10.1-6.9,3.9-1.6,7.9-2.5,12.3-2.5s4.6.1,6.7.4c2.1.3,4,.6,5.9.9,1.9.3,3.7.6,5.5,1,1.8.3,3.5.5,5.3.6,0,1.4,0,2.9.1,4.7,0,1.8.2,3.7.4,5.6.2,1.9.4,3.8.6,5.6.2,1.8.4,3.4.6,4.8h-1.4Z"/>
      <path class="st6" d="M255.9,100.5c-1.2-2.4-2.5-4.8-3.9-7.1-1.4-2.3-3-4.4-4.8-6.2-1.8-1.8-3.9-3.2-6.2-4.3-2.4-1.1-5.1-1.6-8.3-1.6s-6.9.9-9.8,2.7c-2.9,1.8-5.3,4.2-7.3,7s-3.6,6.1-4.6,9.8c-1.1,3.6-1.6,7.2-1.6,10.8s.5,7.9,1.6,11.5c1.1,3.6,2.6,6.8,4.6,9.5s4.5,4.9,7.3,6.5c2.9,1.6,6.1,2.4,9.8,2.4s6.1-.3,9.1-.9,5.7-1.9,8.3-3.7v-12.5c0-4.4-3.3-6.7-9.9-6.9v-1.2c2.4,0,4.7.1,6.8.2,2.1,0,4.4.1,7,.1s4.8,0,7.1,0c2.4,0,4.5,1.1,3.4,1.4-1.2.3-2.1.7-2.9,1.3-.8.6-1.4,1.4-1.9,2.4s-.7,2.3-.7,3.8v13.5c-4.4,1.5-8.8,2.8-13.2,4.1-4.3,1.3-8.5,1.9-12.6,1.9s-8.5-.7-12.6-2.2c-4.1-1.4-7.8-3.6-11.1-6.4-3.3-2.8-5.9-6.3-7.8-10.4-2-4.1-2.9-8.9-2.9-14.3s1-9.1,2.9-13.2c2-4.1,4.6-7.6,7.8-10.6,3.2-3,6.9-5.3,11.1-7,4.1-1.7,8.3-2.6,12.6-2.6s5,.1,7.1.3c2.1.2,4.1.5,5.8.9s3.3.7,4.7,1.1c1.4.4,2.8.7,4.1,1.1,0,1,0,2.4.2,4.1s.4,3.5.6,5.3c.3,1.8.5,3.6.8,5.3.3,1.7.5,3.1.7,4.1h-1.2Z"/>
    </g>
  </g>
  <g>
    <path class="st1" d="M233,146c-.4.4-.9.8-1.3,1.1l-4.6,4.1-4.6,4.1-3.7,3.7h0l-63.5-63.5h0l4.2-4.1c1.7-1.6,3.2-3.3,4.7-5,3.1-3.4,6.1-6.8,9.1-10.3-3.5,3-6.9,6.1-10.3,9.1-1.7,1.5-3.4,3-5,4.7l-4.9,4.9c-.4.4-.4,1,0,1.4l64.9,64.9c.4.4,1,.4,1.4,0l4.4-4.4,4.1-4.6,4.1-4.6c.5-.6,1-1.1,1.5-1.7-.2,0-.5,0-.7,0s0,0,0,0Z"/>
    <path class="st0" d="M218.9,167.6c.2.2,0,0,0,0-.7-.7-1.4-1.5-2.2-2.2l-3-2.8-6-5.6c-4-3.7-7.9-7.4-11.9-11.1,3.7,4,7.4,8,11.1,11.9l5.6,6,2.8,3c.9,1,1.9,1.9,2.9,2.9.4.4,1,.4,1.4,0l25.4-25.4c-1.2.3-2.5.6-3.7.9l-22.4,22.4Z"/>
    <path class="st2" d="M293,94.8l-31.5-31.5-7.9-7.9c-1.3-1.3-2.6-2.7-3.9-3.9l-4.1-3.8c-5.4-5.1-10.8-10.2-16.3-15.2,5,5.5,10.1,10.9,15.2,16.3l3.8,4.1c1.3,1.4,2.6,2.6,3.9,3.9l7.9,7.9,30.8,30.8h0l-31.1,31.1v2.8l33.2-33.2c.4-.4.4-1,0-1.4Z"/>
    <path class="st4" d="M270.8,110l13.7-13.7c.4-.4.4-1,0-1.4l-5.7-5.7c-.2-.2-.5-.5-.7-.7-.3-.2-.5-.4-.8-.6l-1.6-1.2c-1.1-.8-2.2-1.6-3.3-2.4.8,1.1,1.6,2.2,2.4,3.3l1.2,1.6c.2.3.4.5.6.8.2.3.5.5.7.7l5,5h0l-13,13-6.9,6.9c-.1.1-.2.2-.3.3.7,0,1.6.3,2.3.6l6.3-6.3Z"/>
  </g>
  <path class="st3" d="M195.8,146c-4.4-4-8.8-8-13.2-12.1-4.5-3.9-8.5-8.3-12.8-12.4l-25.2-25.2c-.4-.4-.4-1,0-1.4l36.7-36.7,18.4-18.4c6.1-6.1,12.1-12.3,18.6-18.1h0c.2-.3.6-.2.9,0,3.3,3.6,6.7,7.2,10,10.9-3.6-3.3-7.3-6.6-10.9-10h.9c-5.8,6.5-12,12.5-18.1,18.6l-18.4,18.4-36.7,36.7v-1.4l25.2,25.2c4.2,4.2,8.5,8.3,12.4,12.8,4,4.4,8.1,8.7,12.1,13.2Z"/>
</svg>